<?xml version="1.0" standalone="no"?>
<!DOCTYPE svg PUBLIC "-//W3C//DTD SVG 20010904//EN"
 "http://www.w3.org/TR/2001/REC-SVG-20010904/DTD/svg10.dtd">
<svg version="1.0" xmlns="http://www.w3.org/2000/svg"
 width="1200.000000pt" height="630.000000pt" viewBox="0 0 1200.000000 630.000000"
 preserveAspectRatio="xMidYMid meet">

<g transform="translate(0.000000,630.000000) scale(0.100000,-0.100000)"
fill="#000000" stroke="none">
<path d="M5921 5570 c-65 -10 -120 -33 -184 -77 -59 -41 -2723 -2261 -2755
-2296 -32 -34 -40 -98 -17 -134 40 -63 260 -315 286 -329 40 -20 81 -17 120 9
19 13 618 510 1332 1105 l1297 1082 1298 -1082 c713 -595 1312 -1092 1331
-1105 39 -26 68 -29 114 -9 38 16 294 314 304 354 3 14 2 41 -3 60 -11 43 -41
70 -517 465 l-347 288 0 780 c0 849 1 828 -56 866 -26 17 -58 18 -429 18 -376
0 -402 -1 -428 -19 -15 -10 -33 -28 -40 -40 -9 -15 -13 -132 -17 -407 l-5
-387 -430 360 c-236 198 -456 380 -489 404 -75 57 -134 82 -216 94 -72 11 -73
11 -149 0z"/>
<path d="M5933 4542 c-32 -27 -213 -176 -403 -332 -190 -156 -411 -338 -491
-405 -80 -66 -387 -319 -682 -563 l-537 -443 2 -952 c3 -888 4 -954 21 -984
24 -45 77 -96 123 -119 37 -18 70 -19 792 -22 l752 -3 0 726 0 725 490 0 490
0 0 -725 0 -726 753 3 c721 3 754 4 791 22 46 23 99 74 123 119 17 30 18 96
21 984 l2 952 -537 443 c-295 244 -602 497 -682 563 -80 67 -301 249 -491 405
-190 156 -371 305 -403 332 -32 26 -62 48 -67 48 -5 0 -35 -22 -67 -48z"/>
</g>
</svg>
